{"extensionsUsed" : ["KHR_materials_pbrSpecularGlossiness"], "extensionsRequired" : ["KHR_materials_pbrSpecularGlossiness"], "accessors" : [{"bufferView" : 0, "byteOffset" : 0, "componentType" : 5123, "count" : 3666, "type" : "SCALAR", "max" : [803], "min" : [0]}, {"bufferView" : 1, "byteOffset" : 0, "componentType" : 5126, "count" : 804, "type" : "VEC3", "max" : [81.2890625, 66.25228118896484, 135.63226318359375], "min" : [-81.28905487060547, -65.86792755126953, -2.14615535736084], "name" : "POSITION"}, {"bufferView" : 1, "byteOffset" : 12, "componentType" : 5126, "count" : 804, "type" : "VEC3", "max" : [0.9999973773956299, 0.9999473094940186, 0.9999856352806091], "min" : [-0.9999973773956299, -1.0000044107437134, -1.0000044107437134], "name" : "NORMAL"}, {"bufferView" : 1, "byteOffset" : 24, "componentType" : 5126, "count" : 804, "type" : "VEC4", "max" : [0.9854306578636169, 0.9999856948852539, 1.0000044107437134, 1], "min" : [-0.9854621291160583, -0.8172712326049805, -0.9997411370277405, -1], "name" : "TANGENT"}, {"bufferView" : 1, "byteOffset" : 40, "componentType" : 5126, "count" : 804, "type" : "VEC2", "max" : [0.9892769455909729, 1.9865682125091553], "min" : [0.009421770460903645, 1.0094951391220093], "name" : "TEXCOORD_0"}, {"bufferView" : 1, "byteOffset" : 48, "componentType" : 5126, "count" : 804, "type" : "VEC2", "max" : [0.9990623593330383, 1.9981293678283691], "min" : [0, 1], "name" : "TEXCOORD_1"}, {"bufferView" : 1, "byteOffset" : 56, "componentType" : 5126, "count" : 804, "type" : "VEC2", "max" : [0.9892769455909729, 1.9865682125091553], "min" : [0.009421770460903645, 1.0094951391220093], "name" : "TEXCOORD_2"}, {"bufferView" : 1, "byteOffset" : 64, "componentType" : 5126, "count" : 804, "type" : "VEC2", "max" : [0.9892769455909729, 1.9865682125091553], "min" : [0.009421770460903645, 1.0094951391220093], "name" : "TEXCOORD_3"}, {"bufferView" : 1, "byteOffset" : 72, "componentType" : 5126, "count" : 804, "type" : "VEC2", "max" : [0.9892769455909729, 1.9865682125091553], "min" : [0.009421770460903645, 1.0094951391220093], "name" : "TEXCOORD_4"}], "asset" : {"generator" : "Aspose.3D 24.6.0", "version" : "2.0"}, "buffers" : [{"uri" : "data:application/octet-stream;base64,", "byteLength" : 71660}], "bufferViews" : [{"buffer" : 0, "byteOffset" : 0, "byteLength" : 7332, "target" : 34963}, {"buffer" : 0, "byteOffset" : 7336, "byteLength" : 64320, "byteStride" : 80, "target" : 34962}], "images" : [{"uri" : "data:image/png;base64,"}, {"uri" : "data:image/png;base64,"}, {"uri" : "data:image/png;base64,"}, {"uri" : "data:image/png;base64,"}], "materials" : [{"name" : "", "extensions" : {"KHR_materials_pbrSpecularGlossiness" : {"diffuseFactor" : [1, 1, 1, 1], "diffuseTexture" : {"index" : 2, "texCoord" : 0}, "specularFactor" : [1, 1, 1], "glossinessFactor" : 0.7090320122, "specularGlossinessTexture" : {"index" : 3, "texCoord" : 0, "scale" : 1}}}, "pbrMetallicRoughness" : {"baseColorFactor" : [0, 0, 0, 1], "metallicFactor" : 0, "roughnessFactor" : 0}, "normalTexture" : {"index" : 1, "texCoord" : 0, "scale" : 1}, "occlusionTexture" : {"index" : 0, "texCoord" : 0, "strength" : 1}, "emissiveFactor" : [0, 0, 0], "alphaMode" : "OPAQUE", "doubleSided" : true}], "meshes" : [{"primitives" : [{"attributes" : {"POSITION" : 1, "NORMAL" : 2, "TANGENT" : 3, "TEXCOORD_0" : 4, "TEXCOORD_1" : 5, "TEXCOORD_2" : 6, "TEXCOORD_3" : 7, "TEXCOORD_4" : 8}, "indices" : 0, "material" : 0, "mode" : 4}]}], "nodes" : [{"mesh" : 0, "name" : "Sofa020_001_Sofa020_0"}, {"children" : [0], "matrix" : [1, 0, 0, 0, 0, 6.123233995736766E-17, -1, 0, -0, 1, 6.123233995736766E-17, 0, 0, 0, 0, 1], "name" : "Object_4"}, {"children" : [1], "matrix" : [1, 0, 0, 0, 0, 0.999999999999999, 4.371138828673792E-08, 0, 0, -4.371138828673792E-08, 0.999999999999999, 0, 0, 0, 0, 1], "name" : "Sofa020_001"}, {"children" : [2], "name" : "RootNode"}, {"children" : [3], "matrix" : [1, 0, 0, 0, 0, 0, 1, 0, 0, -1, 0, 0, 0, 0, 0, 1], "name" : "Sofa020.FBX"}, {"children" : [4], "matrix" : [1, 0, 0, 0, 0, 2.220446049250313E-16, -1, 0, 0, 1, 2.220446049250313E-16, 0, 0, 0, 0, 1], "name" : "Sketchfab_model"}], "samplers" : [{"magFilter" : 9729, "minFilter" : 9987, "wrapS" : 10497, "wrapT" : 10497}, {"magFilter" : 9729, "minFilter" : 9987, "wrapS" : 10497, "wrapT" : 10497}, {"magFilter" : 9729, "minFilter" : 9987, "wrapS" : 10497, "wrapT" : 10497}, {"magFilter" : 9729, "minFilter" : 9987, "wrapS" : 10497, "wrapT" : 10497}], "scene" : 0, "scenes" : [{"nodes" : [5]}], "textures" : [{"sampler" : 0, "source" : 0, "name" : ""}, {"sampler" : 1, "source" : 1, "name" : ""}, {"sampler" : 2, "source" : 2, "name" : ""}, {"sampler" : 3, "source" : 3, "name" : ""}]}